#!OML:ASF E:\Steps\Project 1\Capture day 1\Session 2\Subject.ASF
:FULLY-SPECIFIED
:DEGREES
63
root 9.41644 16.3455 9.3901 -150.999 -3.49619 -179.561
lowerback -29.1964 -1.63757 -5.3855
upperback -3.42543 -1.34381 -0.352335
thorax 12.3944 -1.27755 2.10036
lowerneck 0.211506 0.0850178 -3.97911
upperneck 8.80122 -0.735945 6.96779
head 2.85363 -0.462859 2.97697
rclavicle 1.50082e-014 -1.43125e-014
rhumerus -34.5889 -19.1164 -80.5033
rradius 28.4495
rwrist 0.882518
rhand -7.46914 -53.9181
rfingers 7.12502
rthumb 18.4196 -83.066
lclavicle 1.50082e-014 -1.43125e-014
lhumerus -29.3161 5.43555 81.3375
lradius 20.1113
lwrist -7.71947
lhand -21.3371 -11.0296
lfingers 7.12502
lthumb 5.04884 18.8902
rfemur -26.6766 7.76293 18.4721
rtibia 6.18473
rfoot -17.7535 -7.42739
rtoes -34.1833
lfemur -27.058 -9.48388 -15.9587
ltibia 7.48905
lfoot -8.16501 4.9788
ltoes -40.0852
64
root 9.41724 16.3475 9.3923 -151.009 -3.50195 -179.618
lowerback -29.1126 -1.64665 -5.42405
upperback -3.40249 -1.33574 -0.396476
thorax 12.377 -1.27187 2.07657
lowerneck 0.19164 0.0766192 -3.93293
upperneck 8.80811 -0.747789 6.95795
head 2.85978 -0.467181 2.96485
rclavicle -3.18055e-015 -2.62396e-014
rhumerus -34.5539 -19.138 -80.5701
rradius 28.4645
rwrist 0.89905
rhand -7.43418 -54.2576
rfingers 7.12502
rthumb 18.4532 -83.4023
lclavicle -3.18055e-015 -2.62396e-014
lhumerus -29.2791 5.16391 81.3702
lradius 20.1424
lwrist -7.55709
lhand -21.1889 -11.0511
lfingers 7.12502
lthumb 5.19196 18.8653
rfemur -26.6616 7.7458 18.4113
rtibia 6.16646
rfoot -17.7402 -7.52778
rtoes -34.4896
lfemur -27.0712 -9.47139 -16.0318
ltibia 7.52655
lfoot -8.22274 4.88389
ltoes -39.6181
65
root 9.41847 16.3494 9.39362 -151.015 -3.51289 -179.616
lowerback -28.9914 -1.63549 -5.42705
upperback -3.43873 -1.33143 -0.394402
thorax 12.2714 -1.26828 2.08548
lowerneck 0.238129 0.0656999 -3.94283
upperneck 8.81496 -0.767182 6.96692
head 2.8549 -0.478723 2.96911
rclavicle -1.98785e-015 3.26007e-014
rhumerus -34.6733 -19.2512 -80.4631
rradius 28.5003
rwrist 1.11103
rhand -7.2933 -54.2411
rfingers 7.12502
rthumb 18.5887 -83.373
lclavicle -1.98785e-015 3.26007e-014
lhumerus -29.2774 5.18263 81.3626
lradius 20.077
lwrist -7.64352
lhand -20.9456 -11.2937
lfingers 7.12502
lthumb 5.4269 18.6168
rfemur -26.6694 7.76383 18.4194
rtibia 6.19939
rfoot -17.739 -7.59184
rtoes -34.4856
lfemur -27.0784 -9.50737 -16.0105
ltibia 7.53655
lfoot -8.3005 4.92465
ltoes -39.8247
66
root 9.41831 16.3477 9.39177 -150.996 -3.49294 -179.576
lowerback -29.0025 -1.62227 -5.40461
upperback -3.44467 -1.32492 -0.368019
thorax 12.27 -1.26515 2.1053
lowerneck 0.280112 0.0756613 -3.97659
upperneck 8.81624 -0.755348 6.96812
head 2.84715 -0.475143 2.97582
rclavicle 1.64991e-014 1.82882e-014
rhumerus -34.7454 -19.3268 -80.3571
rradius 28.5169
rwrist 1.27975
rhand -7.14628 -53.4101
rfingers 7.12502
rthumb 18.7301 -82.5283
lclavicle 1.64991e-014 1.82882e-014
lhumerus -29.2186 5.54534 81.2714
lradius 19.9321
lwrist -8.07332
lhand -20.7743 -11.8093
lfingers 7.12502
lthumb 5.59224 18.0969
rfemur -26.6788 7.69291 18.4827
rtibia 6.18483
rfoot -17.723 -7.47589
rtoes -34.3352
lfemur -27.0752 -9.53909 -15.9518
ltibia 7.5066
lfoot -8.27731 5.05745
ltoes -40.4139
67
root 9.41817 16.3459 9.39028 -150.979 -3.49904 -179.557
lowerback -29.049 -1.63536 -5.38296
upperback -3.39189 -1.3375 -0.348308
thorax 12.3576 -1.26913 2.10925
lowerneck 0.216148 0.0792828 -3.96331
upperneck 8.8203 -0.745714 6.95537
head 2.85951 -0.468025 2.96972
rclavicle -2.18663e-015 -1.66979e-014
rhumerus -34.6129 -19.4013 -80.3089
rradius 28.348
rwrist 1.46361
rhand -6.98621 -51.8514
rfingers 7.12502
rthumb 18.8841 -80.9547
lclavicle -2.18663e-015 -1.66979e-014
lhumerus -29.123 5.60457 81.2666
lradius 19.8738
lwrist -8.23532
lhand -20.8213 -12.0793
lfingers 7.12502
lthumb 5.5469 17.8281
rfemur -26.689 7.77677 18.4746
rtibia 6.16954
rfoot -17.6972 -7.55015
rtoes -34.2133
lfemur -27.0636 -9.50866 -15.9357
ltibia 7.4687
lfoot -8.20029 5.02611
ltoes -40.2738
68
root 9.41919 16.3463 9.38985 -150.977 -3.50485 -179.568
lowerback -29.0668 -1.65267 -5.39831
upperback -3.33547 -1.34274 -0.339646
thorax 12.4343 -1.27056 2.12532
lowerneck 0.20371 0.0755221 -3.94834
upperneck 8.82377 -0.751441 6.95787
head 2.86324 -0.470112 2.96779
rclavicle -4.47266e-015 2.22639e-014
rhumerus -34.4024 -19.1844 -80.493
rradius 28.3606
rwrist 1.01803
rhand -7.40163 -53.1556
rfingers 7.12502
rthumb 18.4845 -82.2974
lclavicle -4.47266e-015 2.22639e-014
lhumerus -29.0459 5.50015 81.3191
lradius 19.8512
lwrist -8.26558
lhand -20.8434 -12.0292
lfingers 7.12502
lthumb 5.52557 17.8787
rfemur -26.687 7.84567 18.4533
rtibia 6.16979
rfoot -17.6925 -7.59133
rtoes -34.3752
lfemur -27.0591 -9.43398 -15.9672
ltibia 7.48027
lfoot -8.19658 4.9227
ltoes -40.0101
69
root 9.42017 16.3473 9.3904 -150.969 -3.48166 -179.606
lowerback -29.0747 -1.66134 -5.43735
upperback -3.30557 -1.33294 -0.359875
thorax 12.4731 -1.26684 2.12791
lowerneck 0.234598 0.0802473 -3.94605
upperneck 8.81809 -0.746792 6.95956
head 2.85525 -0.468678 2.96769
rclavicle 4.96962e-015 1.51076e-014
rhumerus -34.3561 -19.1425 -80.5563
rradius 28.3893
rwrist 0.896609
rhand -7.43552 -53.6813
rfingers 7.12502
rthumb 18.4519 -82.8262
lclavicle 4.96962e-015 1.51076e-014
lhumerus -29.0065 5.3814 81.3282
lradius 19.843
lwrist -8.26317
lhand -20.7823 -12.0626
lfingers 7.12502
lthumb 5.58454 17.8438
rfemur -26.69 7.79526 18.4288
rtibia 6.1692
rfoot -17.6967 -7.51531
rtoes -34.5021
lfemur -27.0982 -9.38345 -16.0297
ltibia 7.5702
lfoot -8.2583 4.86413
ltoes -39.9506
70
root 9.4202 16.3481 9.39186 -150.933 -3.48447 -179.604
lowerback -29.0582 -1.69568 -5.42389
upperback -3.29639 -1.38277 -0.339823
thorax 12.4798 -1.28862 2.12404
lowerneck 0.224252 0.0944473 -3.95683
upperneck 8.81451 -0.72568 6.95414
head 2.85465 -0.458222 2.96834
rclavicle -1.53064e-014 1.27222e-014
rhumerus -34.3633 -19.1095 -80.5503
rradius 28.4006
rwrist 1.02663
rhand -7.43463 -53.302
rfingers 7.12502
rthumb 18.4528 -82.4468
lclavicle -1.53064e-014 1.27222e-014
lhumerus -29.0018 5.44685 81.2979
lradius 19.8711
lwrist -8.33761
lhand -20.7922 -12.1456
lfingers 7.12502
lthumb 5.57502 17.761
rfemur -26.7447 7.81051 18.4233
rtibia 6.18863
rfoot -17.7137 -7.5067
rtoes -34.392
lfemur -27.1756 -9.3814 -16.0152
ltibia 7.63919
lfoot -8.29368 4.82878
ltoes -39.6674
71
root 9.42053 16.349 9.39507 -150.876 -3.52331 -179.562
lowerback -29.0015 -1.72439 -5.37054
upperback -3.30913 -1.44513 -0.302349
thorax 12.4407 -1.31408 2.11353
lowerneck 0.197529 0.104091 -3.95935
upperneck 8.8159 -0.71025 6.94581
head 2.85903 -0.449953 2.96652
rclavicle 9.34288e-015 -1.66979e-014
rhumerus -34.3773 -19.236 -80.4558
rradius 28.3132
rwrist 1.36114
rhand -7.3333 -51.8634
rfingers 7.12502
rthumb 18.5502 -80.9989
lclavicle 9.34288e-015 -1.66979e-014
lhumerus -28.9937 5.64074 81.2366
lradius 19.8829
lwrist -8.57588
lhand -20.8477 -12.2505
lfingers 7.12502
lthumb 5.52142 17.6576
rfemur -26.8527 7.76762 18.4839
rtibia 6.24527
rfoot -17.7302 -7.45662
rtoes -34.3817
lfemur -27.2893 -9.38851 -15.9306
ltibia 7.68849
lfoot -8.35981 4.8213
ltoes -39.5308
72
root 9.42169 16.3505 9.40085 -150.802 -3.62538 -179.582
lowerback -28.9302 -1.76135 -5.37253
upperback -3.3088 -1.49423 -0.298046
thorax 12.4083 -1.33461 2.10219
lowerneck 0.170352 0.107784 -3.99228
upperneck 8.81237 -0.70258 6.95716
head 2.86294 -0.445692 2.97703
rclavicle -1.98785e-015 -9.54166e-015
rhumerus -34.2607 -19.2368 -80.5267
rradius 28.3269
rwrist 1.3394
rhand -7.32218 -52.796
rfingers 7.12502
rthumb 18.5609 -81.9304
lclavicle -1.98785e-015 -9.54166e-015
lhumerus -28.9121 5.82634 81.1598
lradius 19.8594
lwrist -8.91354
lhand -20.8129 -12.5847
lfingers 7.12502
lthumb 5.55501 17.3225
rfemur -26.9796 7.64662 18.495
rtibia 6.32349
rfoot -17.7445 -7.49378
rtoes -34.4092
lfemur -27.4611 -9.39164 -15.9064
ltibia 7.77856
lfoot -8.40059 4.72905
ltoes -39.5736
73
root 9.4189 16.3481 9.39461 -150.804 -3.50196 -179.523
lowerback -28.9843 -1.70829 -5.28581
upperback -3.26597 -1.4413 -0.302529
thorax 12.4811 -1.30563 2.06605
lowerneck 0.133877 0.115806 -4.02156
upperneck 8.81149 -0.687855 6.95813
head 2.86885 -0.437777 2.98355
rclavicle 5.1684e-015 4.77083e-015
rhumerus -34.1562 -19.2719 -80.5325
rradius 28.1928
rwrist 1.39896
rhand -7.38097 -52.4456
rfingers 7.12502
rthumb 18.5044 -81.5855
lclavicle 5.1684e-015 4.77083e-015
lhumerus -28.885 5.90029 81.127
lradius 19.8741
lwrist -9.05481
lhand -20.6583 -12.8098
lfingers 7.12502
lthumb 5.70427 17.0935
rfemur -27.0021 7.5425 18.5843
rtibia 6.39648
rfoot -17.7986 -7.28963
rtoes -34.3699
lfemur -27.3596 -9.39855 -15.8681
ltibia 7.64269
lfoot -8.38764 4.8657
ltoes -39.4648
74
root 9.42225 16.3495 9.4008 -150.745 -3.53529 -179.57
lowerback -28.8775 -1.76701 -5.35607
upperback -3.29169 -1.50686 -0.280015
thorax 12.4025 -1.33816 2.10967
lowerneck 0.121673 0.124615 -4.01603
upperneck 8.81097 -0.674603 6.94952
head 2.86991 -0.430848 2.97991
rclavicle 1.41137e-014 1.43125e-014
rhumerus -34.1395 -19.3479 -80.4993
rradius 28.0912
rwrist 1.36452
rhand -7.66656 -51.4555
rfingers 7.12502
rthumb 18.2297 -80.6213
lclavicle 1.41137e-014 1.43125e-014
lhumerus -28.9286 5.74356 81.1716
lradius 19.9752
lwrist -8.83877
lhand -20.5557 -12.641
lfingers 7.12502
lthumb 5.8033 17.2595
rfemur -27.1037 7.53775 18.5296
rtibia 6.44057
rfoot -17.7848 -7.3439
rtoes -34.362
lfemur -27.4875 -9.3174 -15.9249
ltibia 7.68662
lfoot -8.31797 4.79255
ltoes -40.1702
